<mxfile host="app.diagrams.net" agent="Mozilla/5.0 (Windows NT 10.0; Win64; x64) AppleWebKit/537.36 (KHTML, like Gecko) Chrome/134.0.0.0 Safari/537.36 Edg/134.0.0.0" version="26.2.5">
  <diagram name="Page-1" id="1DMqi_tNtplRe3dGzN1d">
    <mxGraphModel dx="1183" dy="633" grid="1" gridSize="10" guides="1" tooltips="1" connect="1" arrows="1" fold="1" page="1" pageScale="1" pageWidth="827" pageHeight="1169" math="0" shadow="0">
      <root>
        <mxCell id="0" />
        <mxCell id="1" parent="0" />
        <mxCell id="CIM_OH27wow4WKpC6591-11" style="edgeStyle=orthogonalEdgeStyle;rounded=0;orthogonalLoop=1;jettySize=auto;html=1;exitX=0.5;exitY=1;exitDx=0;exitDy=0;entryX=0.5;entryY=0;entryDx=0;entryDy=0;" parent="1" source="CIM_OH27wow4WKpC6591-1" target="CIM_OH27wow4WKpC6591-6" edge="1">
          <mxGeometry relative="1" as="geometry" />
        </mxCell>
        <mxCell id="CIM_OH27wow4WKpC6591-12" style="edgeStyle=orthogonalEdgeStyle;rounded=0;orthogonalLoop=1;jettySize=auto;html=1;exitX=0.5;exitY=1;exitDx=0;exitDy=0;entryX=0.5;entryY=0;entryDx=0;entryDy=0;" parent="1" source="CIM_OH27wow4WKpC6591-1" target="CIM_OH27wow4WKpC6591-5" edge="1">
          <mxGeometry relative="1" as="geometry" />
        </mxCell>
        <mxCell id="CIM_OH27wow4WKpC6591-13" style="edgeStyle=orthogonalEdgeStyle;rounded=0;orthogonalLoop=1;jettySize=auto;html=1;exitX=0.5;exitY=1;exitDx=0;exitDy=0;entryX=0.5;entryY=0;entryDx=0;entryDy=0;" parent="1" source="CIM_OH27wow4WKpC6591-1" target="CIM_OH27wow4WKpC6591-4" edge="1">
          <mxGeometry relative="1" as="geometry" />
        </mxCell>
        <mxCell id="CIM_OH27wow4WKpC6591-14" style="edgeStyle=orthogonalEdgeStyle;rounded=0;orthogonalLoop=1;jettySize=auto;html=1;exitX=0.5;exitY=1;exitDx=0;exitDy=0;entryX=0.5;entryY=0;entryDx=0;entryDy=0;" parent="1" source="CIM_OH27wow4WKpC6591-1" target="CIM_OH27wow4WKpC6591-2" edge="1">
          <mxGeometry relative="1" as="geometry" />
        </mxCell>
        <mxCell id="CIM_OH27wow4WKpC6591-15" style="edgeStyle=orthogonalEdgeStyle;rounded=0;orthogonalLoop=1;jettySize=auto;html=1;exitX=0.5;exitY=1;exitDx=0;exitDy=0;entryX=0.5;entryY=0;entryDx=0;entryDy=0;" parent="1" source="CIM_OH27wow4WKpC6591-1" target="CIM_OH27wow4WKpC6591-3" edge="1">
          <mxGeometry relative="1" as="geometry" />
        </mxCell>
        <mxCell id="CIM_OH27wow4WKpC6591-16" style="edgeStyle=orthogonalEdgeStyle;rounded=0;orthogonalLoop=1;jettySize=auto;html=1;exitX=0.5;exitY=1;exitDx=0;exitDy=0;entryX=0.5;entryY=0;entryDx=0;entryDy=0;" parent="1" source="CIM_OH27wow4WKpC6591-1" target="CIM_OH27wow4WKpC6591-7" edge="1">
          <mxGeometry relative="1" as="geometry" />
        </mxCell>
        <mxCell id="CIM_OH27wow4WKpC6591-17" style="edgeStyle=orthogonalEdgeStyle;rounded=0;orthogonalLoop=1;jettySize=auto;html=1;exitX=0.5;exitY=1;exitDx=0;exitDy=0;entryX=0.5;entryY=0;entryDx=0;entryDy=0;" parent="1" source="CIM_OH27wow4WKpC6591-1" target="CIM_OH27wow4WKpC6591-9" edge="1">
          <mxGeometry relative="1" as="geometry" />
        </mxCell>
        <mxCell id="CIM_OH27wow4WKpC6591-1" value="&lt;font style=&quot;font-size: 16px;&quot;&gt;Graal&lt;/font&gt;" style="rounded=1;whiteSpace=wrap;html=1;strokeWidth=1.5;" parent="1" vertex="1">
          <mxGeometry x="360" y="60" width="86" height="40" as="geometry" />
        </mxCell>
        <mxCell id="CIM_OH27wow4WKpC6591-2" value="truffle" style="rounded=1;whiteSpace=wrap;html=1;fontSize=16;strokeWidth=1.5;" parent="1" vertex="1">
          <mxGeometry x="461" y="150" width="86" height="40" as="geometry" />
        </mxCell>
        <mxCell id="CIM_OH27wow4WKpC6591-3" value="sdk" style="rounded=1;whiteSpace=wrap;html=1;fontSize=16;strokeWidth=1.5;" parent="1" vertex="1">
          <mxGeometry x="560" y="150" width="86" height="40" as="geometry" />
        </mxCell>
        <mxCell id="CIM_OH27wow4WKpC6591-23" style="edgeStyle=orthogonalEdgeStyle;rounded=0;orthogonalLoop=1;jettySize=auto;html=1;exitX=0.5;exitY=1;exitDx=0;exitDy=0;entryX=0.5;entryY=0;entryDx=0;entryDy=0;fontSize=16;" parent="1" source="CIM_OH27wow4WKpC6591-4" target="CIM_OH27wow4WKpC6591-21" edge="1">
          <mxGeometry relative="1" as="geometry" />
        </mxCell>
        <mxCell id="CIM_OH27wow4WKpC6591-24" style="edgeStyle=orthogonalEdgeStyle;rounded=0;orthogonalLoop=1;jettySize=auto;html=1;exitX=0.5;exitY=1;exitDx=0;exitDy=0;entryX=0.5;entryY=0;entryDx=0;entryDy=0;fontSize=16;" parent="1" source="CIM_OH27wow4WKpC6591-4" target="CIM_OH27wow4WKpC6591-19" edge="1">
          <mxGeometry relative="1" as="geometry" />
        </mxCell>
        <mxCell id="CIM_OH27wow4WKpC6591-25" style="edgeStyle=orthogonalEdgeStyle;rounded=0;orthogonalLoop=1;jettySize=auto;html=1;exitX=0.5;exitY=1;exitDx=0;exitDy=0;entryX=0.5;entryY=0;entryDx=0;entryDy=0;fontSize=16;" parent="1" source="CIM_OH27wow4WKpC6591-4" target="CIM_OH27wow4WKpC6591-20" edge="1">
          <mxGeometry relative="1" as="geometry" />
        </mxCell>
        <mxCell id="CIM_OH27wow4WKpC6591-26" style="edgeStyle=orthogonalEdgeStyle;rounded=0;orthogonalLoop=1;jettySize=auto;html=1;exitX=0.5;exitY=1;exitDx=0;exitDy=0;entryX=0.5;entryY=0;entryDx=0;entryDy=0;fontSize=16;" parent="1" source="CIM_OH27wow4WKpC6591-4" target="CIM_OH27wow4WKpC6591-22" edge="1">
          <mxGeometry relative="1" as="geometry" />
        </mxCell>
        <mxCell id="CIM_OH27wow4WKpC6591-4" value="compiler" style="rounded=1;whiteSpace=wrap;html=1;fontSize=16;strokeWidth=1.5;" parent="1" vertex="1">
          <mxGeometry x="360" y="150" width="86" height="40" as="geometry" />
        </mxCell>
        <mxCell id="CIM_OH27wow4WKpC6591-5" value="&lt;font style=&quot;font-size: 14px;&quot;&gt;substratevm&lt;/font&gt;" style="rounded=1;whiteSpace=wrap;html=1;fontSize=16;strokeWidth=1.5;" parent="1" vertex="1">
          <mxGeometry x="260" y="150" width="86" height="40" as="geometry" />
        </mxCell>
        <mxCell id="CIM_OH27wow4WKpC6591-6" value="sulong" style="rounded=1;whiteSpace=wrap;html=1;fontSize=16;strokeWidth=1.5;" parent="1" vertex="1">
          <mxGeometry x="160" y="150" width="86" height="40" as="geometry" />
        </mxCell>
        <mxCell id="CIM_OH27wow4WKpC6591-7" value="wasm" style="rounded=1;whiteSpace=wrap;html=1;fontSize=16;strokeWidth=1.5;" parent="1" vertex="1">
          <mxGeometry x="660" y="150" width="86" height="40" as="geometry" />
        </mxCell>
        <mxCell id="CIM_OH27wow4WKpC6591-9" value="&lt;span style=&quot;text-align: left;&quot;&gt;espresso&lt;/span&gt;" style="rounded=1;whiteSpace=wrap;html=1;fontSize=16;strokeWidth=1.5;" parent="1" vertex="1">
          <mxGeometry x="60" y="150" width="86" height="40" as="geometry" />
        </mxCell>
        <mxCell id="CIM_OH27wow4WKpC6591-10" value="&lt;font style=&quot;font-size: 20px;&quot;&gt;&lt;b&gt;...&lt;/b&gt;&lt;/font&gt;" style="text;html=1;align=center;verticalAlign=middle;resizable=0;points=[];autosize=1;strokeColor=none;fillColor=none;" parent="1" vertex="1">
          <mxGeometry x="760" y="150" width="40" height="40" as="geometry" />
        </mxCell>
        <mxCell id="CIM_OH27wow4WKpC6591-19" value="src" style="rounded=1;whiteSpace=wrap;html=1;fontSize=16;strokeWidth=1.5;" parent="1" vertex="1">
          <mxGeometry x="310" y="230" width="86" height="40" as="geometry" />
        </mxCell>
        <mxCell id="CIM_OH27wow4WKpC6591-20" value="&lt;font style=&quot;font-size: 14px;&quot;&gt;mx.compiler&lt;/font&gt;" style="rounded=1;whiteSpace=wrap;html=1;fontSize=16;strokeWidth=1.5;" parent="1" vertex="1">
          <mxGeometry x="413.5" y="230" width="86" height="40" as="geometry" />
        </mxCell>
        <mxCell id="CIM_OH27wow4WKpC6591-21" value="docs" style="rounded=1;whiteSpace=wrap;html=1;fontSize=16;strokeWidth=1.5;" parent="1" vertex="1">
          <mxGeometry x="210" y="230" width="86" height="40" as="geometry" />
        </mxCell>
        <mxCell id="CIM_OH27wow4WKpC6591-22" value="mxbuild" style="rounded=1;whiteSpace=wrap;html=1;fontSize=16;strokeWidth=1.5;" parent="1" vertex="1">
          <mxGeometry x="510" y="230" width="86" height="40" as="geometry" />
        </mxCell>
        <mxCell id="CIM_OH27wow4WKpC6591-40" style="edgeStyle=orthogonalEdgeStyle;rounded=0;orthogonalLoop=1;jettySize=auto;html=1;exitX=0.25;exitY=1;exitDx=0;exitDy=0;entryX=0.5;entryY=0;entryDx=0;entryDy=0;fontColor=light-dark(#ff0000, #ededed);strokeColor=#FF0000;endSize=10;strokeWidth=2;curved=1;" parent="1" source="CIM_OH27wow4WKpC6591-27" target="CIM_OH27wow4WKpC6591-28" edge="1">
          <mxGeometry relative="1" as="geometry" />
        </mxCell>
        <mxCell id="CIM_OH27wow4WKpC6591-41" style="edgeStyle=orthogonalEdgeStyle;rounded=0;orthogonalLoop=1;jettySize=auto;html=1;exitX=0.75;exitY=1;exitDx=0;exitDy=0;entryX=0.5;entryY=0;entryDx=0;entryDy=0;fontColor=light-dark(#ff0000, #ededed);strokeColor=#FF0000;endSize=10;strokeWidth=2;curved=1;" parent="1" source="CIM_OH27wow4WKpC6591-27" target="CIM_OH27wow4WKpC6591-29" edge="1">
          <mxGeometry relative="1" as="geometry" />
        </mxCell>
        <mxCell id="CIM_OH27wow4WKpC6591-27" value="&lt;font style=&quot;font-size: 18px;&quot;&gt;If&lt;/font&gt;" style="rounded=0;whiteSpace=wrap;html=1;" parent="1" vertex="1">
          <mxGeometry x="207" y="580" width="80" height="30" as="geometry" />
        </mxCell>
        <mxCell id="CIM_OH27wow4WKpC6591-42" style="edgeStyle=orthogonalEdgeStyle;rounded=0;orthogonalLoop=1;jettySize=auto;html=1;exitX=0.5;exitY=1;exitDx=0;exitDy=0;entryX=0.5;entryY=0;entryDx=0;entryDy=0;fontColor=light-dark(#ff0000, #ededed);strokeColor=#FF0000;endSize=10;strokeWidth=2;" parent="1" source="CIM_OH27wow4WKpC6591-28" target="CIM_OH27wow4WKpC6591-30" edge="1">
          <mxGeometry relative="1" as="geometry" />
        </mxCell>
        <mxCell id="CIM_OH27wow4WKpC6591-28" value="&lt;font style=&quot;font-size: 18px;&quot;&gt;Begin&lt;/font&gt;" style="rounded=0;whiteSpace=wrap;html=1;" parent="1" vertex="1">
          <mxGeometry x="143" y="660" width="80" height="30" as="geometry" />
        </mxCell>
        <mxCell id="CIM_OH27wow4WKpC6591-43" style="edgeStyle=orthogonalEdgeStyle;rounded=0;orthogonalLoop=1;jettySize=auto;html=1;exitX=0.5;exitY=1;exitDx=0;exitDy=0;entryX=0.5;entryY=0;entryDx=0;entryDy=0;fontColor=light-dark(#ff0000, #ededed);strokeColor=#FF0000;endSize=10;strokeWidth=2;" parent="1" source="CIM_OH27wow4WKpC6591-29" target="CIM_OH27wow4WKpC6591-31" edge="1">
          <mxGeometry relative="1" as="geometry" />
        </mxCell>
        <mxCell id="CIM_OH27wow4WKpC6591-29" value="&lt;font style=&quot;font-size: 18px;&quot;&gt;Begin&lt;/font&gt;" style="rounded=0;whiteSpace=wrap;html=1;" parent="1" vertex="1">
          <mxGeometry x="271" y="660" width="80" height="30" as="geometry" />
        </mxCell>
        <mxCell id="CIM_OH27wow4WKpC6591-30" value="&lt;font style=&quot;font-size: 18px;&quot;&gt;End&lt;/font&gt;" style="rounded=0;whiteSpace=wrap;html=1;" parent="1" vertex="1">
          <mxGeometry x="143" y="750" width="80" height="30" as="geometry" />
        </mxCell>
        <mxCell id="CIM_OH27wow4WKpC6591-31" value="&lt;font style=&quot;font-size: 18px;&quot;&gt;End&lt;/font&gt;" style="rounded=0;whiteSpace=wrap;html=1;" parent="1" vertex="1">
          <mxGeometry x="271" y="750" width="80" height="30" as="geometry" />
        </mxCell>
        <mxCell id="CIM_OH27wow4WKpC6591-44" style="edgeStyle=orthogonalEdgeStyle;rounded=0;orthogonalLoop=1;jettySize=auto;html=1;exitX=0.25;exitY=0;exitDx=0;exitDy=0;entryX=0.5;entryY=1;entryDx=0;entryDy=0;endArrow=block;endFill=0;strokeWidth=2;endSize=9;curved=1;" parent="1" source="CIM_OH27wow4WKpC6591-32" target="CIM_OH27wow4WKpC6591-30" edge="1">
          <mxGeometry relative="1" as="geometry" />
        </mxCell>
        <mxCell id="CIM_OH27wow4WKpC6591-32" value="&lt;font style=&quot;font-size: 18px;&quot;&gt;Merge&lt;/font&gt;" style="rounded=0;whiteSpace=wrap;html=1;" parent="1" vertex="1">
          <mxGeometry x="249.5" y="840" width="80" height="30" as="geometry" />
        </mxCell>
        <mxCell id="CIM_OH27wow4WKpC6591-33" value="&lt;font style=&quot;font-size: 18px;&quot;&gt;Add&lt;/font&gt;" style="rounded=0;whiteSpace=wrap;html=1;" parent="1" vertex="1">
          <mxGeometry x="413" y="810" width="80" height="30" as="geometry" />
        </mxCell>
        <mxCell id="CIM_OH27wow4WKpC6591-49" style="edgeStyle=orthogonalEdgeStyle;rounded=0;orthogonalLoop=1;jettySize=auto;html=1;exitX=0.5;exitY=0;exitDx=0;exitDy=0;entryX=0.5;entryY=1;entryDx=0;entryDy=0;endArrow=block;endFill=0;strokeWidth=2;endSize=9;curved=1;" parent="1" source="CIM_OH27wow4WKpC6591-34" target="CIM_OH27wow4WKpC6591-33" edge="1">
          <mxGeometry relative="1" as="geometry" />
        </mxCell>
        <mxCell id="CIM_OH27wow4WKpC6591-34" value="&lt;font style=&quot;font-size: 18px;&quot;&gt;Phi&lt;/font&gt;" style="rounded=0;whiteSpace=wrap;html=1;" parent="1" vertex="1">
          <mxGeometry x="351" y="920" width="80" height="30" as="geometry" />
        </mxCell>
        <mxCell id="CIM_OH27wow4WKpC6591-58" style="edgeStyle=orthogonalEdgeStyle;rounded=0;orthogonalLoop=1;jettySize=auto;html=1;exitX=0.75;exitY=0;exitDx=0;exitDy=0;curved=1;endArrow=block;endFill=0;endSize=10;strokeWidth=2;" parent="1" source="CIM_OH27wow4WKpC6591-35" edge="1">
          <mxGeometry relative="1" as="geometry">
            <mxPoint x="393.5000000000001" y="955" as="targetPoint" />
          </mxGeometry>
        </mxCell>
        <mxCell id="CIM_OH27wow4WKpC6591-35" value="&lt;font style=&quot;font-size: 18px;&quot;&gt;Return&lt;/font&gt;" style="rounded=0;whiteSpace=wrap;html=1;" parent="1" vertex="1">
          <mxGeometry x="237" y="995" width="80" height="30" as="geometry" />
        </mxCell>
        <mxCell id="CIM_OH27wow4WKpC6591-36" value="&lt;font style=&quot;font-size: 25px;&quot;&gt;&lt;b style=&quot;&quot;&gt;...&lt;/b&gt;&lt;/font&gt;" style="text;html=1;align=center;verticalAlign=middle;resizable=0;points=[];autosize=1;strokeColor=none;fillColor=none;" parent="1" vertex="1">
          <mxGeometry x="209.5" y="505" width="40" height="40" as="geometry" />
        </mxCell>
        <mxCell id="CIM_OH27wow4WKpC6591-37" value="&lt;font style=&quot;font-size: 18px;&quot;&gt;cond&lt;/font&gt;" style="text;html=1;align=center;verticalAlign=middle;resizable=0;points=[];autosize=1;strokeColor=none;fillColor=none;" parent="1" vertex="1">
          <mxGeometry x="257" y="515" width="60" height="40" as="geometry" />
        </mxCell>
        <mxCell id="CIM_OH27wow4WKpC6591-38" value="&lt;div style=&quot;background-color: rgb(255, 255, 255); font-family: Consolas, &amp;quot;Courier New&amp;quot;, monospace; font-size: 18px; line-height: 24px; white-space: pre;&quot;&gt;&lt;div&gt;...&lt;/div&gt;&lt;div&gt;&lt;span style=&quot;color: #0000ff;&quot;&gt;if&lt;/span&gt; (cond) {&lt;/div&gt;&lt;div&gt;&amp;nbsp; &amp;nbsp; result = value1 + value2;&lt;/div&gt;&lt;div&gt;} &lt;span style=&quot;color: #0000ff;&quot;&gt;else&lt;/span&gt; {&lt;/div&gt;&lt;div&gt;&amp;nbsp; &amp;nbsp; result = value2;&lt;/div&gt;&lt;div&gt;}&lt;/div&gt;&lt;div&gt;&lt;span style=&quot;color: #0000ff;&quot;&gt;return&lt;/span&gt; result;&lt;/div&gt;&lt;/div&gt;" style="rounded=0;whiteSpace=wrap;html=1;align=left;spacing=8;" parent="1" vertex="1">
          <mxGeometry x="383.5" y="480" width="300.5" height="180" as="geometry" />
        </mxCell>
        <mxCell id="CIM_OH27wow4WKpC6591-39" value="" style="endArrow=classic;html=1;rounded=0;exitX=0.431;exitY=1;exitDx=0;exitDy=0;exitPerimeter=0;entryX=0.25;entryY=0;entryDx=0;entryDy=0;fontColor=light-dark(#ff0000, #ededed);strokeColor=#FF0000;endSize=10;strokeWidth=2;" parent="1" source="CIM_OH27wow4WKpC6591-36" target="CIM_OH27wow4WKpC6591-27" edge="1">
          <mxGeometry width="50" height="50" relative="1" as="geometry">
            <mxPoint x="113.5" y="625" as="sourcePoint" />
            <mxPoint x="163.5" y="575" as="targetPoint" />
          </mxGeometry>
        </mxCell>
        <mxCell id="CIM_OH27wow4WKpC6591-46" style="edgeStyle=orthogonalEdgeStyle;rounded=0;orthogonalLoop=1;jettySize=auto;html=1;exitX=0.75;exitY=0;exitDx=0;exitDy=0;entryX=0.471;entryY=1;entryDx=0;entryDy=0;entryPerimeter=0;endArrow=block;endFill=0;strokeWidth=2;endSize=9;" parent="1" source="CIM_OH27wow4WKpC6591-32" target="CIM_OH27wow4WKpC6591-31" edge="1">
          <mxGeometry relative="1" as="geometry" />
        </mxCell>
        <mxCell id="CIM_OH27wow4WKpC6591-47" style="edgeStyle=orthogonalEdgeStyle;rounded=0;orthogonalLoop=1;jettySize=auto;html=1;exitX=0.25;exitY=1;exitDx=0;exitDy=0;fontColor=light-dark(#ff0000, #ededed);strokeColor=#FF0000;endSize=10;strokeWidth=2;" parent="1" source="CIM_OH27wow4WKpC6591-32" edge="1">
          <mxGeometry relative="1" as="geometry">
            <mxPoint x="269.5" y="995" as="targetPoint" />
          </mxGeometry>
        </mxCell>
        <mxCell id="CIM_OH27wow4WKpC6591-50" value="&lt;font style=&quot;font-size: 18px;&quot;&gt;value1&lt;/font&gt;" style="text;html=1;align=center;verticalAlign=middle;resizable=0;points=[];autosize=1;strokeColor=none;fillColor=none;" parent="1" vertex="1">
          <mxGeometry x="393.5" y="725" width="80" height="40" as="geometry" />
        </mxCell>
        <mxCell id="CIM_OH27wow4WKpC6591-51" value="&lt;font style=&quot;font-size: 18px;&quot;&gt;value2&lt;/font&gt;" style="text;html=1;align=center;verticalAlign=middle;resizable=0;points=[];autosize=1;strokeColor=none;fillColor=none;" parent="1" vertex="1">
          <mxGeometry x="510.5" y="725" width="80" height="40" as="geometry" />
        </mxCell>
        <mxCell id="CIM_OH27wow4WKpC6591-53" style="edgeStyle=orthogonalEdgeStyle;rounded=0;orthogonalLoop=1;jettySize=auto;html=1;exitX=0.25;exitY=0;exitDx=0;exitDy=0;endArrow=block;endFill=0;strokeWidth=2;endSize=9;" parent="1" source="CIM_OH27wow4WKpC6591-33" edge="1">
          <mxGeometry relative="1" as="geometry">
            <mxPoint x="433.5" y="765" as="targetPoint" />
          </mxGeometry>
        </mxCell>
        <mxCell id="CIM_OH27wow4WKpC6591-54" style="edgeStyle=orthogonalEdgeStyle;rounded=0;orthogonalLoop=1;jettySize=auto;html=1;exitX=0.75;exitY=0;exitDx=0;exitDy=0;entryX=0.365;entryY=0.974;entryDx=0;entryDy=0;entryPerimeter=0;endArrow=block;endFill=0;strokeWidth=2;endSize=9;curved=1;" parent="1" source="CIM_OH27wow4WKpC6591-33" target="CIM_OH27wow4WKpC6591-51" edge="1">
          <mxGeometry relative="1" as="geometry" />
        </mxCell>
        <mxCell id="CIM_OH27wow4WKpC6591-55" style="edgeStyle=orthogonalEdgeStyle;rounded=0;orthogonalLoop=1;jettySize=auto;html=1;exitX=0.25;exitY=0;exitDx=0;exitDy=0;entryX=0.695;entryY=0.981;entryDx=0;entryDy=0;entryPerimeter=0;endArrow=block;endFill=0;strokeWidth=2;endSize=9;curved=1;" parent="1" source="CIM_OH27wow4WKpC6591-34" target="CIM_OH27wow4WKpC6591-32" edge="1">
          <mxGeometry relative="1" as="geometry" />
        </mxCell>
        <mxCell id="CIM_OH27wow4WKpC6591-56" style="edgeStyle=orthogonalEdgeStyle;rounded=0;orthogonalLoop=1;jettySize=auto;html=1;exitX=0.75;exitY=0;exitDx=0;exitDy=0;entryX=0.66;entryY=1.035;entryDx=0;entryDy=0;entryPerimeter=0;endArrow=block;endFill=0;strokeWidth=2;endSize=9;curved=1;" parent="1" source="CIM_OH27wow4WKpC6591-34" target="CIM_OH27wow4WKpC6591-51" edge="1">
          <mxGeometry relative="1" as="geometry">
            <Array as="points">
              <mxPoint x="411.5" y="895" />
              <mxPoint x="563.5" y="895" />
            </Array>
          </mxGeometry>
        </mxCell>
      </root>
    </mxGraphModel>
  </diagram>
</mxfile>
